<svg width="51" height="51" viewBox="0 0 51 51" fill="none" xmlns="http://www.w3.org/2000/svg">
<path fill-rule="evenodd" clip-rule="evenodd" d="M0 25.4167C0 11.379 11.379 0 25.4167 0C39.4543 0 50.8333 11.379 50.8333 25.4167C50.8333 39.4543 39.4543 50.8333 25.4167 50.8333C11.379 50.8333 0 39.4543 0 25.4167ZM25.4167 5.08333C20.0239 5.08333 14.8521 7.22559 11.0388 11.0388C7.22559 14.8521 5.08333 20.0239 5.08333 25.4167C5.08333 30.8094 7.22559 35.9813 11.0388 39.7945C14.8521 43.6077 20.0239 45.75 25.4167 45.75C30.8094 45.75 35.9813 43.6077 39.7945 39.7945C43.6077 35.9813 45.75 30.8094 45.75 25.4167C45.75 20.0239 43.6077 14.8521 39.7945 11.0388C35.9813 7.22559 30.8094 5.08333 25.4167 5.08333Z" fill="white"/>
<path fill-rule="evenodd" clip-rule="evenodd" d="M27.9583 12.7083C27.9583 12.0342 27.6905 11.3878 27.2139 10.9111C26.7372 10.4345 26.0907 10.1667 25.4167 10.1667C24.7426 10.1667 24.0961 10.4345 23.6194 10.9111C23.1428 11.3878 22.875 12.0342 22.875 12.7083V22.875H12.7083C12.0342 22.875 11.3877 23.1428 10.9111 23.6194C10.4344 24.0961 10.1667 24.7426 10.1667 25.4167C10.1667 26.0908 10.4344 26.7372 10.9111 27.2139C11.3877 27.6906 12.0342 27.9583 12.7083 27.9583H22.875V38.125C22.875 38.7991 23.1428 39.4456 23.6194 39.9222C24.0961 40.3989 24.7426 40.6667 25.4167 40.6667C26.0907 40.6667 26.7372 40.3989 27.2139 39.9222C27.6905 39.4456 27.9583 38.7991 27.9583 38.125V27.9583H38.125C38.7991 27.9583 39.4456 27.6906 39.9222 27.2139C40.3989 26.7372 40.6667 26.0908 40.6667 25.4167C40.6667 24.7426 40.3989 24.0961 39.9222 23.6194C39.4456 23.1428 38.7991 22.875 38.125 22.875H27.9583V12.7083Z" fill="white"/>
</svg>
