<svg width="20" height="20" viewBox="0 0 21 21" fill="none" xmlns="http://www.w3.org/2000/svg">
<path d="M5.5 3.5H15.5C16.0304 3.5 16.5391 3.71071 16.9142 4.08579C17.2893 4.46086 17.5 4.96957 17.5 5.5V15.5C17.5 16.0304 17.2893 16.5391 16.9142 16.9142C16.5391 17.2893 16.0304 17.5 15.5 17.5H5.5C4.96957 17.5 4.46086 17.2893 4.08579 16.9142C3.71071 16.5391 3.5 16.0304 3.5 15.5V5.5C3.5 4.96957 3.71071 4.46086 4.08579 4.08579C4.46086 3.71071 4.96957 3.5 5.5 3.5Z" stroke="white" stroke-linecap="round" stroke-linejoin="round"/>
<path d="M9.39398 11.9087L13.2304 8.13363C13.321 8.04454 13.4266 8 13.5473 8C13.668 8 13.7737 8.04454 13.8642 8.13363C13.9547 8.22272 14 8.32858 14 8.45122C14 8.57387 13.9547 8.67958 13.8642 8.76837L9.71086 12.8664C9.62032 12.9555 9.5147 13 9.39398 13C9.27327 13 9.16764 12.9555 9.0771 12.8664L7.13058 10.951C7.04004 10.8619 6.99659 10.7562 7.00021 10.6339C7.00383 10.5115 7.05106 10.4056 7.1419 10.3163C7.23274 10.2269 7.34032 10.1823 7.46466 10.1826C7.58899 10.1829 7.69643 10.2275 7.78697 10.3163L9.39398 11.9087Z" fill="white"/>
</svg>
