<svg width="21" height="25" viewBox="0 0 21 25" fill="none" xmlns="http://www.w3.org/2000/svg">
<path d="M1.12705e-05 22.6462V2.222C1.12705e-05 1.54733 0.221844 1.00833 0.66551 0.604999C1.10918 0.201666 1.62801 0 2.22201 0C2.41634 0 2.61251 0.0256663 2.81051 0.0769997C3.01035 0.1265 3.20743 0.202584 3.40176 0.30525L19.4673 10.571C19.8083 10.8093 20.0649 11.0825 20.2373 11.3905C20.4078 11.6967 20.493 12.0441 20.493 12.4327C20.493 12.8214 20.4078 13.1688 20.2373 13.475C20.0668 13.7812 19.8101 14.0543 19.4673 14.2945L3.39901 24.5602C3.20651 24.6611 3.01035 24.7372 2.81051 24.7885C2.61251 24.8398 2.41634 24.8655 2.22201 24.8655C1.62984 24.8655 1.11101 24.6638 0.66551 24.2605C0.22001 23.8572 -0.00182206 23.3191 1.12705e-05 22.6462ZM2.75001 21.6453L17.2948 12.4327L2.75001 3.22025V21.6453Z" fill="white"/>
</svg>
